<svg xmlns="http://www.w3.org/2000/svg" viewBox="1613.3 797 24.638 25">
  <defs>
    <style>
      .cls-1 {
        fill: #991253;
      }
    </style>
  </defs>
  <g id="Groupe_26" data-name="Groupe 26" transform="translate(1323 594)">
    <circle id="Ellipse_23" data-name="Ellipse 23" class="cls-1" cx="1" cy="1" r="1" transform="translate(304.7 204.6)"/>
    <circle id="Ellipse_24" data-name="Ellipse 24" class="cls-1" cx="0.6" cy="0.6" r="0.6" transform="translate(296.8 206.1)"/>
    <path id="Tracé_118" data-name="Tracé 118" class="cls-1" d="M313.4,204.6a3.192,3.192,0,0,0-2.8-1.6h0a1.258,1.258,0,0,0-1.1,1.8c.8,1.7-.1,2.5-.8,2.2-.9-.4-1.8.3-1.5,1.7s-1.7,2.1-2.5,1.3-2-.5-2,.8a2.818,2.818,0,0,1-2.9,2.8,2.87,2.87,0,0,1-2.6-3c0-1,.3-1.6-.4-2.1s-1.7,1.3-2.6.7.4-2.7-.5-3.1c-.7-.3-1.6.9-2,3a11.682,11.682,0,0,1,2.2-5.1.634.634,0,0,0-.5-1,.764.764,0,0,0-.5.2,12.458,12.458,0,0,0-2.6,7.6,12.113,12.113,0,0,0,10.5,12.1.974.974,0,0,1,.8,1V227a1,1,0,0,0,1,1h0a1,1,0,0,0,1-1v-3.1a.974.974,0,0,1,.8-1,12.353,12.353,0,0,0,10.5-12.1A10.075,10.075,0,0,0,313.4,204.6Z"/>
  </g>
</svg>
