<svg xmlns="http://www.w3.org/2000/svg" viewBox="1653 703.5 25.611 22">
  <defs>
    <style>
      .cls-1 {
        fill: #991253;
      }
    </style>
  </defs>
  <path id="Tracé_97" data-name="Tracé 97" class="cls-1" d="M353.8,111.3a6.81,6.81,0,0,0-5-1.8,5.662,5.662,0,0,0-1.8.3,8.864,8.864,0,0,0-1.7.8,16.964,16.964,0,0,0-1.4,1,9.958,9.958,0,0,0-1.1,1,10.948,10.948,0,0,0-1.1-1c-.4-.3-.8-.6-1.4-1a8.865,8.865,0,0,0-1.7-.8,5.663,5.663,0,0,0-1.8-.3,6.81,6.81,0,0,0-5,1.8,6.569,6.569,0,0,0-1.8,4.9,7.47,7.47,0,0,0,.3,2,5.389,5.389,0,0,0,.8,1.7,12.132,12.132,0,0,0,1,1.4c.4.5.6.8.8.9l.4.4,8.9,8.6a.864.864,0,0,0,.6.3.713.713,0,0,0,.6-.3l8.9-8.6c2.2-2.2,3.3-4.3,3.3-6.4A5.882,5.882,0,0,0,353.8,111.3Z" transform="translate(1323 594)"/>
</svg>
