<svg xmlns="http://www.w3.org/2000/svg" viewBox="1613.5 607 24.6 25">
  <defs>
    <style>
      .cls-1 {
        fill: #dadada;
      }
    </style>
  </defs>
  <path id="Tracé_55" data-name="Tracé 55" class="cls-1" d="M291.7,20.8a10.827,10.827,0,0,1,2.4-6.8.634.634,0,0,0-.5-1h0a.764.764,0,0,0-.5.2,12.458,12.458,0,0,0-2.6,7.6A12.113,12.113,0,0,0,301,32.9a.974.974,0,0,1,.8,1V37a1,1,0,0,0,1,1h0a1,1,0,0,0,1-1V33.9a.974.974,0,0,1,.8-1,12.275,12.275,0,0,0,7.9-19.7.764.764,0,0,0-.5-.2h0a.634.634,0,0,0-.5,1,10.745,10.745,0,0,1,2.3,6.8c0,3.8-2.7,8.7-5.6,8.7-3,0-3.1-1.3-5.5-1.3s-2.3,1.7-5.6,1.5c-2.5-.2-5.4-5.2-5.4-8.9" transform="translate(1323 594)"/>
</svg>
