<svg xmlns="http://www.w3.org/2000/svg" viewBox="1652.9 608.5 25.6 22">
  <defs>
    <style>
      .cls-1 {
        fill: #dadada;
      }
    </style>
  </defs>
  <path id="Tracé_54" data-name="Tracé 54" class="cls-1" d="M353.7,16.3a6.81,6.81,0,0,0-5-1.8,5.662,5.662,0,0,0-1.8.3,8.865,8.865,0,0,0-1.7.8,16.964,16.964,0,0,0-1.4,1,9.958,9.958,0,0,0-1.1,1,10.948,10.948,0,0,0-1.1-1c-.4-.3-.8-.6-1.4-1a8.865,8.865,0,0,0-1.7-.8,5.663,5.663,0,0,0-1.8-.3,6.81,6.81,0,0,0-5,1.8,6.569,6.569,0,0,0-1.8,4.9,7.47,7.47,0,0,0,.3,2,5.389,5.389,0,0,0,.8,1.7,12.132,12.132,0,0,0,1,1.4c.4.5.6.8.8.9l.4.4,8.9,8.6a.864.864,0,0,0,.6.3.713.713,0,0,0,.6-.3l8.9-8.6c2.2-2.2,3.3-4.3,3.3-6.4A6.569,6.569,0,0,0,353.7,16.3Zm-2.7,10-8.3,8-8.3-8q-2.7-2.7-2.7-5.1a5.618,5.618,0,0,1,.3-2,3.687,3.687,0,0,1,.8-1.4,6.233,6.233,0,0,1,1.2-.9,3.816,3.816,0,0,1,1.3-.4,6.149,6.149,0,0,1,1.4-.1,3.429,3.429,0,0,1,1.6.4,5.071,5.071,0,0,1,1.6.9c.5.4.9.7,1.2,1l.9.9a.967.967,0,0,0,1.4,0,3.819,3.819,0,0,1,.9-.9,12.7,12.7,0,0,1,1.2-1,5.071,5.071,0,0,1,1.6-.9,5.349,5.349,0,0,1,1.6-.4,6.149,6.149,0,0,1,1.4.1,6.468,6.468,0,0,1,1.3.4,3.449,3.449,0,0,1,1.2.9,3.687,3.687,0,0,1,.8,1.4,6.447,6.447,0,0,1,.3,2Q353.7,23.6,351,26.3Z" transform="translate(1323 594)"/>
</svg>
