<svg xmlns="http://www.w3.org/2000/svg" viewBox="1366.597 696.522 33.686 69.956">
  <defs>
    <style>
      .cls-1 {
        fill: #f8ca0b;
      }

      .cls-2 {
        fill: #936d49;
      }

      .cls-14, .cls-3, .cls-4, .cls-8 {
        fill: #fff;
      }

      .cls-3 {
        opacity: 0.25;
      }

      .cls-4 {
        opacity: 0.5;
      }

      .cls-5 {
        fill: #674f3a;
      }

      .cls-6 {
        fill: #af8562;
      }

      .cls-7 {
        fill: #e3e3e2;
      }

      .cls-8 {
        opacity: 0.09;
      }

      .cls-9 {
        fill: #dadada;
      }

      .cls-10 {
        fill: #e7e8e9;
      }

      .cls-11 {
        fill: #fbe071;
      }

      .cls-12 {
        fill: #f8d12f;
      }

      .cls-13 {
        fill: #d1d2d4;
      }

      .cls-14 {
        opacity: 0.3;
      }
    </style>
  </defs>
  <g id="Groupe_87" data-name="Groupe 87" transform="translate(1323 594)">
    <path id="Tracé_79" data-name="Tracé 79" class="cls-1" d="M55.6,117.3l.1,2.9a5.411,5.411,0,0,0,1.2,3.6s2.5,2.3,3.1,4.1c0,.1,0,.1.1.2.1.3.7,1.9.6,6.1l-.2,33.6s.2,2.9-1.9,3.7a22.265,22.265,0,0,1-12.9,0s-2.2-.6-2.1-3.8v-36a10.347,10.347,0,0,1,1.7-5.7,16.957,16.957,0,0,1,2.3-2.4s1.2-.7,1.1-5v-1.3Z"/>
    <path id="Tracé_80" data-name="Tracé 80" class="cls-2" d="M55.6,117.3l-.3-10.9.1-.4v-1.8l-.2-.4c.2-1-.3-1.1-.3-1.1a18.35,18.35,0,0,0-5.4,0c-.6.1-.4,1-.4,1l-.2.4v2l.2.5-.3,10.8A15.531,15.531,0,0,0,55.6,117.3Z"/>
    <path id="Tracé_81" data-name="Tracé 81" class="cls-3" d="M54.2,122.6l-.6-19.5c0-.1.1-.3.3-.2l.7.1a.215.215,0,0,1,.2.2l.5,18.4v.1l-.6,1C54.6,122.9,54.3,122.8,54.2,122.6Z"/>
    <line id="Ligne_6" data-name="Ligne 6" class="cls-4" y1="0.6" transform="translate(51.4 105.7)"/>
    <line id="Ligne_7" data-name="Ligne 7" class="cls-4" y2="0.2" transform="translate(49.5 105.9)"/>
    <path id="Tracé_82" data-name="Tracé 82" class="cls-5" d="M49,106.1s4.9.4,6.3,0a19.74,19.74,0,0,0-6.3,0"/>
    <path id="Tracé_83" data-name="Tracé 83" class="cls-6" d="M48.9,104.1a31.882,31.882,0,0,1,6.5,0A33.241,33.241,0,0,1,48.9,104.1Z"/>
    <path id="Tracé_84" data-name="Tracé 84" class="cls-7" d="M44.6,140.2s9.7,1.1,15.1,0v18.5s-7.5,3.2-15.1,0Z"/>
    <path id="Tracé_85" data-name="Tracé 85" class="cls-8" d="M51.4,126.1c.1-.1,0-.3-.2-.3-1.5,0-5.7.7-5.9,6.7v7.8c.8.1,2.3.2,4.1.3C49.7,133.7,50.2,127.8,51.4,126.1Z"/>
    <path id="Tracé_86" data-name="Tracé 86" class="cls-8" d="M45.4,166.7h0a3.558,3.558,0,0,0,4.1,2.7.215.215,0,0,0,.2-.2c0-.9-.2-4.4-.3-9.2a22.2,22.2,0,0,1-4.1-1v7.7Z"/>
    <path id="Tracé_87" data-name="Tracé 87" class="cls-3" d="M58.1,168.5a.215.215,0,0,0,.4.1,9.659,9.659,0,0,0,.7-2h0v-7.8a8.112,8.112,0,0,1-1.1.3Z"/>
    <path id="Tracé_88" data-name="Tracé 88" class="cls-3" d="M59.1,133.9a14.4,14.4,0,0,0-.7-5.1.215.215,0,0,0-.4.1l.1,11.5a3.6,3.6,0,0,0,1.1-.2Z"/>
    <path id="Tracé_89" data-name="Tracé 89" class="cls-9" d="M49.4,140.6c-1.7-.1-3.2-.2-4.1-.3V159a20.42,20.42,0,0,0,4.1,1C49.3,154.4,49.2,147,49.4,140.6Z"/>
    <path id="Tracé_90" data-name="Tracé 90" class="cls-9" d="M58,140.5l.1,18.8a6.149,6.149,0,0,1,1.1-.3V140.4A4.483,4.483,0,0,0,58,140.5Z"/>
    <g id="Groupe_23" data-name="Groupe 23">
      <path id="Tracé_91" data-name="Tracé 91" class="cls-10" d="M75.1,132.8l1.7,7s2.4,8.5-3.5,10.9c0,0-2.3.7-2.3,1.3,0,0,0,.6-.3.7v14.2a2.058,2.058,0,0,0,1.2,1.7s4.7.7,4.7,1.6c0,0,.5,1.2-6.5,1.3-7,0-6.8-1.3-6.8-1.3-.1-.9,4.7-1.6,4.7-1.6,1.1-.3,1.2-1.7,1.2-1.7V152.7c-.2-.1-.2-.7-.2-.7-.1-.7-2.3-1.3-2.3-1.3-5.9-2.7-3.5-10.9-3.5-10.9l1.7-7"/>
      <path id="Tracé_92" data-name="Tracé 92" class="cls-11" d="M68.8,151.4a7.183,7.183,0,0,0-2-.9c-4.8-2.2-4-8.2-3.6-10.1H76.9c.4,2,1.2,8.1-3.6,10.1a7.183,7.183,0,0,0-2,.9Z"/>
      <ellipse id="Ellipse_19" data-name="Ellipse 19" class="cls-12" cx="6.9" cy="0.6" rx="6.9" ry="0.6" transform="translate(63.1 139.8)"/>
      <ellipse id="Ellipse_20" data-name="Ellipse 20" class="cls-13" cx="5.1" cy="0.3" rx="5.1" ry="0.3" transform="translate(64.9 132.5)"/>
    </g>
    <path id="Tracé_93" data-name="Tracé 93" class="cls-14" d="M70.5,150.6c1.9-.3,8.5-2.5,4.1-16.1a.548.548,0,0,0-.6-.4h-.2a.641.641,0,0,0-.6.8c.6,2.6,2.1,11-3.2,14.7a.627.627,0,0,0-.2.8h0A.748.748,0,0,0,70.5,150.6Z"/>
  </g>
</svg>
