<svg xmlns="http://www.w3.org/2000/svg" viewBox="107 67.366 162 148.634">
  <defs>
    <style>
      .cls-1, .cls-2, .cls-3 {
        fill: #fff;
      }

      .cls-2 {
        opacity: 0.3;
      }

      .cls-3 {
        font-size: 36px;
        font-family: ChaparralPro-Bold, Chaparral Pro;
        font-weight: 700;
      }
    </style>
  </defs>
  <g id="Groupe_29" data-name="Groupe 29" transform="translate(136.302 67.366)">
    <path id="Tracé_120" data-name="Tracé 120" class="cls-1" d="M91.407,0H84.42A46.268,46.268,0,0,1,97.956,32.749c0,16.011-11.28,36.461-23.434,36.534-12.663.073-13.027-5.531-23-5.531-10.116,0-9.606,7.059-23.434,6.186C17.03,69.137,5.167,48.323,5.167,32.749c0-12.736,5.385-21.323,8.806-19.722,3.639,1.674-1.528,10.407,2.111,12.881C19.8,28.455,23.8,20.887,26.782,23c3.275,2.256,1.6,4.876,1.6,9.752a11.608,11.608,0,1,0,23.216,0c0-5.24,5.094-6.768,8.369-3.275s11.644.146,10.407-5.6c-1.237-5.677,2.547-8.66,6.332-7.132C80.2,18.121,85.876,11.79,74.377,0H11.644A51.671,51.671,0,1,0,91.407,0ZM63.97,6.7a4.075,4.075,0,1,1-4.075,4.075A4.069,4.069,0,0,1,63.97,6.7ZM28.747,12.881a2.693,2.693,0,1,1-2.693,2.693A2.785,2.785,0,0,1,28.747,12.881Z"/>
    <circle id="Ellipse_27" data-name="Ellipse 27" class="cls-2" cx="2.693" cy="2.693" r="2.693" transform="translate(26.054 12.881)"/>
    <path id="Tracé_121" data-name="Tracé 121" class="cls-2" d="M41.887,49.2A11.616,11.616,0,0,1,30.316,37.556c0-4.949,1.674-7.5-1.528-9.752-2.984-2.111-6.986,5.458-10.7,2.911-3.639-2.474,1.528-11.208-2.111-12.881C12.485,16.306,7.1,24.893,7.1,37.556a23.216,23.216,0,1,0,46.431,0A11.678,11.678,0,0,1,41.887,49.2Z" transform="translate(-1.933 -4.807)"/>
    <text id="Wine_Me" data-name="Wine&amp;Me" class="cls-3" transform="translate(-29.302 139.634)"><tspan x="0" y="0">Wine&amp;Me</tspan></text>
  </g>
</svg>
