<svg xmlns="http://www.w3.org/2000/svg" viewBox="1806 1920.2 19.3 20">
  <defs>
    <style>
      .cls-1 {
        fill: #c7c7cc;
      }
    </style>
  </defs>
  <g id="Groupe_54" data-name="Groupe 54" transform="translate(1806 1916)">
    <path id="Tracé_37" data-name="Tracé 37" class="cls-1" d="M19,22.5l-4.8-5a8.317,8.317,0,0,0,1.9-5.2A8.066,8.066,0,0,0,8,4.2a7.982,7.982,0,0,0-8,8.1,8.066,8.066,0,0,0,8.1,8.1,7.461,7.461,0,0,0,4.6-1.5l4.8,5a1.135,1.135,0,0,0,.8.3.908.908,0,0,0,.7-.3A.967.967,0,0,0,19,22.5ZM8.1,6.3a6,6,0,1,1-6,6A6.018,6.018,0,0,1,8.1,6.3Z"/>
  </g>
</svg>
