<svg xmlns="http://www.w3.org/2000/svg" viewBox="1351 0 170.001 173">
  <defs>
    <style>
      .cls-1 {
        opacity: 0.15;
      }

      .cls-2, .cls-3 {
        fill: #fff;
      }

      .cls-2 {
        opacity: 0.3;
      }
    </style>
  </defs>
  <g id="Groupe_13" data-name="Groupe 13" class="cls-1" transform="translate(1351)">
    <path id="Tracé_32" data-name="Tracé 32" class="cls-2" d="M64.447,69.656a19.15,19.15,0,0,1-19.076-19.2c0-8.158,2.759-12.357-2.519-16.076-4.919-3.479-11.517,9-17.636,4.8-6-4.079,2.519-18.476-3.479-21.235C15.978,15.429,7.1,29.586,7.1,50.461a38.271,38.271,0,1,0,76.542,0A19.252,19.252,0,0,1,64.447,69.656Z" transform="translate(1.418 3.527)"/>
    <path id="Tracé_33" data-name="Tracé 33" class="cls-3" d="M170,53.988A85.006,85.006,0,0,0,150.685,0H139.168a76.273,76.273,0,0,1,22.315,53.988c0,26.394-18.6,60.106-38.631,60.226-20.875.12-21.475-9.118-37.911-9.118-16.676,0-15.836,11.637-38.631,10.2C28.074,113.974,8.518,79.662,8.518,53.988c0-21,8.878-35.152,14.517-32.512,6,2.759-2.519,17.156,3.479,21.235,6.119,4.2,12.717-8.278,17.636-4.8s2.879,7.438,2.519,14.637c-.36,10.558,7.558,20.035,18,20.635A19.083,19.083,0,0,0,84.82,54.107c0-8.638,8.4-11.157,13.8-5.4s19.2.24,17.156-9.238c-2.04-9.358,4.2-14.277,10.438-11.757,5.759,2.279,15.117-8.158-3.839-27.594H18.956A86.008,86.008,0,0,0,0,53.988a85.037,85.037,0,0,0,72.463,84.1,6.729,6.729,0,0,1,5.759,6.718V173H91.779V144.807a6.729,6.729,0,0,1,5.759-6.718A84.945,84.945,0,0,0,170,53.988Zm-64.545-42.95a6.718,6.718,0,1,1-6.718,6.718A6.707,6.707,0,0,1,105.456,11.037Zm-58.067,10.2a4.439,4.439,0,1,1-4.439,4.439A4.591,4.591,0,0,1,47.389,21.235Z"/>
  </g>
</svg>
