<svg xmlns="http://www.w3.org/2000/svg" viewBox="3661.437 765.894 172 98.031">
  <defs>
    <style>
      .cls-1, .cls-2, .cls-3 {
        fill: #fff;
      }

      .cls-2 {
        opacity: 0.3;
      }

      .cls-3 {
        font-size: 24px;
        font-family: ChaparralPro-Bold, Chaparral Pro;
        font-weight: 700;
        letter-spacing: 0.2em;
      }
    </style>
  </defs>
  <g id="Groupe_59" data-name="Groupe 59" transform="translate(3714.798 765.894)">
    <path id="Tracé_120" data-name="Tracé 120" class="cls-1" d="M58.641,0H54.159a29.683,29.683,0,0,1,8.684,21.01c0,10.271-7.237,23.391-15.034,23.438-8.124.047-8.357-3.548-14.754-3.548-6.49,0-6.163,4.529-15.034,3.969C10.925,44.354,3.315,31,3.315,21.01c0-8.17,3.455-13.68,5.649-12.653,2.334,1.074-.98,6.676,1.354,8.264,2.381,1.634,4.949-3.222,6.863-1.868,2.1,1.447,1.027,3.128,1.027,6.256a7.447,7.447,0,1,0,14.894,0c0-3.362,3.268-4.342,5.369-2.1s7.47.093,6.676-3.6c-.794-3.642,1.634-5.556,4.062-4.575,2.241.887,5.883-3.175-1.494-10.738H7.47A33.149,33.149,0,1,0,58.641,0Zm-17.6,4.3A2.615,2.615,0,1,1,38.425,6.91,2.61,2.61,0,0,1,41.039,4.3Zm-22.6,3.969a1.727,1.727,0,1,1-1.727,1.727A1.786,1.786,0,0,1,18.442,8.264Z"/>
    <circle id="Ellipse_27" data-name="Ellipse 27" class="cls-2" cx="1.727" cy="1.727" r="1.727" transform="translate(16.714 8.264)"/>
    <path id="Tracé_121" data-name="Tracé 121" class="cls-2" d="M29.417,37.894a7.452,7.452,0,0,1-7.423-7.47c0-3.175,1.074-4.809-.98-6.256-1.914-1.354-4.482,3.5-6.863,1.868-2.334-1.587.98-7.19-1.354-8.264-2.241-.98-5.7,4.529-5.7,12.653a14.894,14.894,0,0,0,29.787,0A7.492,7.492,0,0,1,29.417,37.894Z" transform="translate(-3.785 -9.414)"/>
    <text id="BIENVENUE" class="cls-3" transform="translate(32.639 92.031)"><tspan x="-85.896" y="0">BIENVENUE</tspan></text>
  </g>
</svg>
